<svg xmlns="http://www.w3.org/2000/svg" xmlns:xlink="http://www.w3.org/1999/xlink" width="1040" zoomAndPan="magnify" viewBox="0 0 780 494.999988" height="660" preserveAspectRatio="xMidYMid meet" version="1.0"><defs><filter x="0%" y="0%" width="100%" height="100%" id="54c5edeab4"><feColorMatrix values="0 0 0 0 1 0 0 0 0 1 0 0 0 0 1 0 0 0 1 0" color-interpolation-filters="sRGB"/></filter><clipPath id="cd3f8a775d"><path d="M 83.703125 466 L 201 466 L 201 474 L 83.703125 474 Z M 83.703125 466 " clip-rule="nonzero"/></clipPath><mask id="9680580a00"><g filter="url(#54c5edeab4)"><rect x="-78" width="936" fill="#000000" y="-49.499999" height="593.999986" fill-opacity="0.3"/></g></mask><clipPath id="08a039f69c"><path d="M 0 1 L 34.800781 1 L 34.800781 6.960938 L 0 6.960938 Z M 0 1 " clip-rule="nonzero"/></clipPath><clipPath id="bf1e6db9f2"><rect x="0" width="35" y="0" height="7"/></clipPath><mask id="32c6ea3c7f"><g filter="url(#54c5edeab4)"><rect x="-78" width="936" fill="#000000" y="-49.499999" height="593.999986" fill-opacity="0.3"/></g></mask><clipPath id="7d5570aa8f"><path d="M 1 1 L 35 1 L 35 6.960938 L 1 6.960938 Z M 1 1 " clip-rule="nonzero"/></clipPath><clipPath id="e53cb491b5"><rect x="0" width="36" y="0" height="7"/></clipPath><mask id="7cfc47b0b7"><g filter="url(#54c5edeab4)"><rect x="-78" width="936" fill="#000000" y="-49.499999" height="593.999986" fill-opacity="0.3"/></g></mask><clipPath id="016eeef68c"><path d="M 1 1 L 35 1 L 35 6.960938 L 1 6.960938 Z M 1 1 " clip-rule="nonzero"/></clipPath><clipPath id="757601215e"><rect x="0" width="36" y="0" height="7"/></clipPath><mask id="8f53297528"><g filter="url(#54c5edeab4)"><rect x="-78" width="936" fill="#000000" y="-49.499999" height="593.999986" fill-opacity="0.3"/></g></mask><clipPath id="6db62f7612"><path d="M 0 0.441406 L 34.800781 0.441406 L 34.800781 7 L 0 7 Z M 0 0.441406 " clip-rule="nonzero"/></clipPath><clipPath id="1ce6620fa4"><rect x="0" width="35" y="0" height="8"/></clipPath><mask id="a11827f571"><g filter="url(#54c5edeab4)"><rect x="-78" width="936" fill="#000000" y="-49.499999" height="593.999986" fill-opacity="0.3"/></g></mask><clipPath id="f23b579cb3"><path d="M 1 0.441406 L 35 0.441406 L 35 7 L 1 7 Z M 1 0.441406 " clip-rule="nonzero"/></clipPath><clipPath id="bd2468caa2"><rect x="0" width="36" y="0" height="8"/></clipPath><mask id="45a58b1b30"><g filter="url(#54c5edeab4)"><rect x="-78" width="936" fill="#000000" y="-49.499999" height="593.999986" fill-opacity="0.3"/></g></mask><clipPath id="16e58d31cb"><path d="M 1 0.441406 L 35 0.441406 L 35 7 L 1 7 Z M 1 0.441406 " clip-rule="nonzero"/></clipPath><clipPath id="91c46b6d99"><rect x="0" width="36" y="0" height="8"/></clipPath><mask id="aa3bae185f"><g filter="url(#54c5edeab4)"><rect x="-78" width="936" fill="#000000" y="-49.499999" height="593.999986" fill-opacity="0.3"/></g></mask><clipPath id="b2ef89627f"><path d="M 0 1 L 34.800781 1 L 34.800781 7 L 0 7 Z M 0 1 " clip-rule="nonzero"/></clipPath><clipPath id="f11edc5a9f"><rect x="0" width="35" y="0" height="8"/></clipPath><mask id="0f1decb89a"><g filter="url(#54c5edeab4)"><rect x="-78" width="936" fill="#000000" y="-49.499999" height="593.999986" fill-opacity="0.3"/></g></mask><clipPath id="a09f0e6ea4"><rect x="0" width="36" y="0" height="8"/></clipPath><mask id="48ceea7951"><g filter="url(#54c5edeab4)"><rect x="-78" width="936" fill="#000000" y="-49.499999" height="593.999986" fill-opacity="0.3"/></g></mask><clipPath id="8e5f315dcf"><rect x="0" width="36" y="0" height="8"/></clipPath></defs><path fill="#ffe8e8" d="M 684.359375 428.976562 C 683.429688 431.496094 682.371094 434.015625 681.175781 436.402344 L 92.585938 436.402344 C 91.921875 433.882812 91.261719 431.496094 90.730469 428.976562 C 90.597656 428.710938 90.597656 428.445312 90.597656 428.050781 C 87.546875 413.070312 88.210938 397.425781 93.515625 382.3125 C 109.15625 337.773438 133.019531 291.640625 131.824219 243.386719 C 131.296875 222.175781 126.257812 201.363281 127.582031 180.019531 C 131.03125 123.414062 158.867188 69.722656 211.496094 44.40625 C 254.316406 23.855469 304.425781 19.085938 350.957031 22.132812 C 401.199219 25.449219 451.574219 43.210938 487.765625 79.136719 C 517.328125 108.300781 530.980469 148.867188 553.382812 183.066406 C 561.867188 196.058594 570.882812 208.917969 580.957031 220.714844 C 596.601562 239.011719 620.460938 251.339844 637.296875 269.367188 C 655.460938 288.855469 671.234375 310.992188 682.238281 335.253906 C 696.289062 366.671875 695.628906 400.078125 684.359375 428.976562 Z M 684.359375 428.976562 " fill-opacity="1" fill-rule="nonzero"/><path fill="#ff5757" d="M 301.507812 61.242188 L 298.59375 61.242188 C 298.0625 58.988281 297.265625 56.867188 296.074219 54.878906 L 298.195312 52.757812 C 298.992188 51.960938 298.992188 50.765625 298.195312 49.972656 L 293.554688 45.332031 C 292.761719 44.535156 291.566406 44.535156 290.773438 45.332031 L 288.78125 47.320312 C 286.925781 46.128906 284.804688 45.199219 282.550781 44.667969 L 282.550781 41.621094 C 282.550781 40.558594 281.625 39.632812 280.5625 39.632812 L 273.9375 39.632812 C 272.875 39.632812 271.949219 40.558594 271.949219 41.621094 L 271.949219 44.535156 C 269.695312 45.066406 267.574219 45.863281 265.585938 47.054688 L 263.464844 44.933594 C 262.667969 44.140625 261.476562 44.140625 260.679688 44.933594 L 256.039062 49.574219 C 255.242188 50.371094 255.242188 51.5625 256.039062 52.359375 L 258.160156 54.480469 C 256.96875 56.335938 256.039062 58.457031 255.507812 60.710938 L 252.460938 60.710938 C 251.398438 60.710938 250.472656 61.636719 250.472656 62.699219 L 250.472656 69.328125 C 250.472656 70.386719 251.398438 71.316406 252.460938 71.316406 L 255.375 71.316406 C 255.90625 73.570312 256.703125 75.691406 257.894531 77.679688 L 255.773438 79.800781 C 254.980469 80.59375 254.980469 81.789062 255.773438 82.582031 L 260.414062 87.222656 C 261.210938 88.019531 262.402344 88.019531 263.199219 87.222656 L 265.1875 85.234375 C 267.042969 86.425781 269.164062 87.355469 271.417969 87.886719 L 271.417969 90.933594 C 271.417969 91.996094 272.34375 92.921875 273.40625 92.921875 L 280.035156 92.921875 C 281.09375 92.921875 282.023438 91.996094 282.023438 90.933594 L 282.023438 88.019531 C 284.277344 87.488281 286.398438 86.691406 288.386719 85.5 L 290.507812 87.621094 C 291.300781 88.417969 292.496094 88.417969 293.289062 87.621094 L 297.929688 82.980469 C 298.726562 82.1875 298.726562 80.992188 297.929688 80.195312 L 295.808594 78.074219 C 297.003906 76.21875 297.929688 74.097656 298.460938 71.84375 L 301.507812 71.84375 C 302.570312 71.84375 303.496094 70.917969 303.496094 69.855469 L 303.496094 63.230469 C 303.496094 62.167969 302.570312 61.242188 301.507812 61.242188 Z M 277.78125 78.605469 C 270.621094 79.003906 264.789062 73.304688 264.789062 66.277344 C 264.789062 59.515625 270.355469 53.949219 277.117188 53.949219 C 284.144531 53.949219 289.710938 59.78125 289.445312 66.941406 C 289.046875 73.171875 284.011719 78.207031 277.78125 78.605469 Z M 277.78125 78.605469 " fill-opacity="1" fill-rule="nonzero"/><path fill="#ffe8e8" d="M 634.78125 136.007812 L 631.066406 136.007812 C 630.40625 133.089844 629.34375 130.441406 627.753906 127.921875 L 630.539062 125.136719 C 631.464844 124.207031 631.464844 122.617188 630.539062 121.691406 L 624.570312 115.726562 C 623.644531 114.796875 622.054688 114.796875 621.125 115.726562 L 618.472656 118.375 C 616.085938 116.785156 613.304688 115.726562 610.386719 114.929688 L 610.386719 111.085938 C 610.386719 109.757812 609.328125 108.566406 607.867188 108.566406 L 599.382812 108.566406 C 598.058594 108.566406 596.867188 109.625 596.867188 111.085938 L 596.867188 114.796875 C 593.949219 115.460938 591.296875 116.519531 588.777344 117.976562 L 585.996094 115.195312 C 585.066406 114.265625 583.476562 114.265625 582.546875 115.195312 L 576.449219 121.160156 C 575.523438 122.085938 575.523438 123.679688 576.449219 124.605469 L 579.101562 127.257812 C 577.511719 129.644531 576.449219 132.429688 575.65625 135.34375 L 571.8125 135.34375 C 570.484375 135.34375 569.292969 136.40625 569.292969 137.863281 L 569.292969 146.347656 C 569.292969 147.671875 570.351562 148.867188 571.8125 148.867188 L 575.523438 148.867188 C 576.183594 151.78125 577.246094 154.433594 578.703125 156.953125 L 575.921875 159.738281 C 574.992188 160.664062 574.992188 162.253906 575.921875 163.183594 L 581.886719 169.148438 C 582.8125 170.078125 584.40625 170.078125 585.332031 169.148438 L 587.984375 166.496094 C 590.371094 168.089844 593.152344 169.148438 596.070312 169.945312 L 596.070312 173.789062 C 596.070312 175.113281 597.128906 176.308594 598.589844 176.308594 L 607.074219 176.308594 C 608.398438 176.308594 609.59375 175.246094 609.59375 173.789062 L 609.59375 170.078125 C 612.507812 169.414062 615.160156 168.351562 617.679688 166.894531 L 620.460938 169.679688 C 621.390625 170.605469 622.980469 170.605469 623.910156 169.679688 L 629.875 163.714844 C 630.800781 162.785156 630.800781 161.195312 629.875 160.265625 L 627.222656 157.617188 C 628.8125 155.230469 630.007812 152.445312 630.671875 149.527344 L 634.515625 149.527344 C 635.839844 149.527344 637.03125 148.46875 637.03125 147.011719 L 637.03125 138.394531 C 637.164062 137.066406 636.105469 136.007812 634.78125 136.007812 Z M 604.15625 158.144531 C 595.011719 158.675781 587.453125 151.386719 587.453125 142.371094 C 587.453125 133.621094 594.480469 126.59375 603.230469 126.59375 C 612.242188 126.59375 619.535156 134.152344 619.003906 143.164062 C 618.605469 151.121094 612.109375 157.75 604.15625 158.144531 Z M 604.15625 158.144531 " fill-opacity="1" fill-rule="nonzero"/><path fill="#ffe8e8" d="M 661.425781 471.796875 C 661.425781 471.914062 661.332031 472.03125 661.144531 472.148438 C 660.953125 472.261719 660.671875 472.378906 660.300781 472.496094 C 659.925781 472.609375 659.460938 472.722656 658.902344 472.835938 C 658.34375 472.945312 657.699219 473.058594 656.964844 473.164062 C 656.230469 473.273438 655.410156 473.378906 654.507812 473.484375 C 653.601562 473.585938 652.617188 473.6875 651.550781 473.785156 C 650.484375 473.882812 649.34375 473.976562 648.125 474.066406 C 646.90625 474.15625 645.621094 474.242188 644.261719 474.328125 C 642.90625 474.410156 641.484375 474.488281 640.003906 474.5625 C 638.519531 474.636719 636.980469 474.707031 635.382812 474.773438 C 633.789062 474.835938 632.144531 474.898438 630.453125 474.953125 C 628.757812 475.007812 627.027344 475.058594 625.253906 475.101562 C 623.480469 475.148438 621.675781 475.1875 619.839844 475.222656 C 618.003906 475.253906 616.144531 475.285156 614.261719 475.304688 C 612.378906 475.328125 610.484375 475.347656 608.574219 475.359375 C 606.664062 475.371094 604.75 475.375 602.832031 475.375 C 600.910156 475.375 598.996094 475.371094 597.085938 475.359375 C 595.179688 475.347656 593.28125 475.328125 591.398438 475.304688 C 589.519531 475.285156 587.660156 475.253906 585.820312 475.222656 C 583.984375 475.1875 582.179688 475.148438 580.40625 475.101562 C 578.636719 475.058594 576.902344 475.007812 575.210938 474.953125 C 573.519531 474.898438 571.875 474.835938 570.277344 474.773438 C 568.683594 474.707031 567.144531 474.636719 565.660156 474.5625 C 564.175781 474.488281 562.753906 474.410156 561.398438 474.328125 C 560.042969 474.242188 558.753906 474.15625 557.539062 474.066406 C 556.320312 473.976562 555.179688 473.882812 554.113281 473.785156 C 553.046875 473.6875 552.058594 473.585938 551.15625 473.484375 C 550.25 473.378906 549.433594 473.273438 548.695312 473.164062 C 547.964844 473.058594 547.316406 472.949219 546.761719 472.835938 C 546.203125 472.722656 545.738281 472.609375 545.363281 472.496094 C 544.988281 472.378906 544.707031 472.261719 544.519531 472.148438 C 544.332031 472.03125 544.238281 471.914062 544.238281 471.796875 C 544.238281 471.679688 544.332031 471.5625 544.519531 471.445312 C 544.707031 471.328125 544.988281 471.210938 545.363281 471.097656 C 545.738281 470.984375 546.203125 470.871094 546.761719 470.757812 C 547.316406 470.644531 547.964844 470.535156 548.699219 470.425781 C 549.433594 470.316406 550.25 470.210938 551.15625 470.109375 C 552.058594 470.003906 553.046875 469.90625 554.113281 469.808594 C 555.179688 469.710938 556.320312 469.617188 557.539062 469.527344 C 558.753906 469.433594 560.042969 469.347656 561.398438 469.265625 C 562.753906 469.183594 564.175781 469.105469 565.660156 469.027344 C 567.144531 468.953125 568.683594 468.886719 570.277344 468.820312 C 571.875 468.753906 573.519531 468.695312 575.210938 468.640625 C 576.902344 468.585938 578.636719 468.535156 580.40625 468.488281 C 582.179688 468.445312 583.984375 468.40625 585.820312 468.371094 C 587.660156 468.335938 589.519531 468.308594 591.398438 468.285156 C 593.28125 468.261719 595.179688 468.246094 597.085938 468.234375 C 598.996094 468.222656 600.910156 468.21875 602.832031 468.214844 C 604.75 468.21875 606.664062 468.222656 608.574219 468.234375 C 610.484375 468.246094 612.378906 468.261719 614.261719 468.285156 C 616.144531 468.308594 618.003906 468.335938 619.839844 468.371094 C 621.675781 468.40625 623.480469 468.445312 625.253906 468.488281 C 627.027344 468.535156 628.757812 468.585938 630.453125 468.640625 C 632.144531 468.695312 633.789062 468.753906 635.382812 468.820312 C 636.980469 468.886719 638.519531 468.953125 640.003906 469.027344 C 641.484375 469.105469 642.90625 469.183594 644.261719 469.265625 C 645.621094 469.347656 646.90625 469.433594 648.125 469.523438 C 649.34375 469.617188 650.484375 469.710938 651.550781 469.808594 C 652.617188 469.90625 653.601562 470.003906 654.507812 470.109375 C 655.410156 470.210938 656.230469 470.316406 656.964844 470.425781 C 657.699219 470.535156 658.34375 470.644531 658.902344 470.757812 C 659.460938 470.871094 659.925781 470.984375 660.300781 471.097656 C 660.671875 471.210938 660.953125 471.328125 661.144531 471.445312 C 661.332031 471.5625 661.425781 471.679688 661.425781 471.796875 Z M 661.425781 471.796875 " fill-opacity="1" fill-rule="nonzero"/><g clip-path="url(#cd3f8a775d)"><path fill="#ffe8e8" d="M 200.890625 469.675781 C 200.890625 469.792969 200.796875 469.910156 200.609375 470.027344 C 200.421875 470.140625 200.140625 470.257812 199.765625 470.375 C 199.390625 470.488281 198.925781 470.601562 198.367188 470.714844 C 197.8125 470.824219 197.167969 470.9375 196.433594 471.042969 C 195.699219 471.152344 194.878906 471.257812 193.972656 471.363281 C 193.070312 471.464844 192.082031 471.566406 191.015625 471.664062 C 189.949219 471.761719 188.808594 471.855469 187.59375 471.945312 C 186.375 472.035156 185.085938 472.121094 183.730469 472.207031 C 182.375 472.289062 180.953125 472.367188 179.46875 472.441406 C 177.984375 472.515625 176.445312 472.585938 174.851562 472.652344 C 173.253906 472.714844 171.613281 472.777344 169.917969 472.832031 C 168.226562 472.886719 166.492188 472.9375 164.722656 472.980469 C 162.949219 473.027344 161.144531 473.066406 159.308594 473.101562 C 157.46875 473.132812 155.613281 473.164062 153.730469 473.183594 C 151.847656 473.207031 149.949219 473.226562 148.042969 473.238281 C 146.132812 473.25 144.21875 473.253906 142.296875 473.253906 C 140.378906 473.253906 138.464844 473.25 136.554688 473.238281 C 134.644531 473.226562 132.75 473.207031 130.867188 473.183594 C 128.984375 473.164062 127.125 473.132812 125.289062 473.101562 C 123.453125 473.066406 121.648438 473.027344 119.875 472.980469 C 118.101562 472.9375 116.371094 472.886719 114.675781 472.832031 C 112.984375 472.777344 111.339844 472.714844 109.746094 472.652344 C 108.148438 472.585938 106.609375 472.515625 105.125 472.441406 C 103.644531 472.367188 102.222656 472.289062 100.867188 472.207031 C 99.507812 472.121094 98.222656 472.035156 97.003906 471.945312 C 95.785156 471.855469 94.644531 471.761719 93.578125 471.664062 C 92.511719 471.566406 91.527344 471.464844 90.621094 471.363281 C 89.71875 471.257812 88.898438 471.152344 88.164062 471.042969 C 87.429688 470.9375 86.785156 470.824219 86.226562 470.714844 C 85.671875 470.601562 85.203125 470.488281 84.828125 470.375 C 84.457031 470.257812 84.175781 470.140625 83.984375 470.027344 C 83.796875 469.910156 83.703125 469.792969 83.703125 469.675781 C 83.703125 469.558594 83.796875 469.441406 83.984375 469.324219 C 84.175781 469.207031 84.457031 469.089844 84.828125 468.976562 C 85.203125 468.863281 85.671875 468.75 86.226562 468.636719 C 86.785156 468.523438 87.429688 468.414062 88.164062 468.304688 C 88.898438 468.195312 89.71875 468.089844 90.621094 467.988281 C 91.527344 467.882812 92.511719 467.785156 93.578125 467.6875 C 94.644531 467.589844 95.785156 467.496094 97.003906 467.402344 C 98.222656 467.3125 99.507812 467.226562 100.867188 467.144531 C 102.222656 467.0625 103.644531 466.984375 105.125 466.90625 C 106.609375 466.832031 108.148438 466.765625 109.746094 466.699219 C 111.339844 466.632812 112.984375 466.574219 114.675781 466.519531 C 116.371094 466.464844 118.101562 466.414062 119.875 466.367188 C 121.648438 466.324219 123.453125 466.285156 125.289062 466.25 C 127.125 466.214844 128.984375 466.1875 130.867188 466.164062 C 132.75 466.140625 134.644531 466.125 136.554688 466.113281 C 138.464844 466.101562 140.378906 466.097656 142.296875 466.097656 C 144.21875 466.097656 146.132812 466.101562 148.042969 466.113281 C 149.949219 466.125 151.847656 466.140625 153.730469 466.164062 C 155.613281 466.1875 157.46875 466.214844 159.308594 466.25 C 161.144531 466.285156 162.949219 466.324219 164.722656 466.367188 C 166.492188 466.414062 168.226562 466.464844 169.917969 466.519531 C 171.613281 466.574219 173.253906 466.632812 174.851562 466.699219 C 176.445312 466.765625 177.984375 466.832031 179.46875 466.90625 C 180.953125 466.984375 182.375 467.0625 183.730469 467.144531 C 185.085938 467.226562 186.375 467.3125 187.59375 467.402344 C 188.808594 467.496094 189.949219 467.589844 191.015625 467.6875 C 192.082031 467.785156 193.070312 467.882812 193.972656 467.988281 C 194.878906 468.089844 195.699219 468.195312 196.433594 468.304688 C 197.167969 468.414062 197.8125 468.523438 198.367188 468.636719 C 198.925781 468.75 199.390625 468.863281 199.765625 468.976562 C 200.140625 469.089844 200.421875 469.207031 200.609375 469.324219 C 200.796875 469.441406 200.890625 469.558594 200.890625 469.675781 Z M 200.890625 469.675781 " fill-opacity="1" fill-rule="nonzero"/></g><path fill="#0a163d" d="M 458.335938 193.804688 L 496.117188 193.804688 L 496.117188 87.222656 C 496.117188 76.75 487.632812 68.398438 477.292969 68.398438 C 466.820312 68.398438 458.46875 76.882812 458.46875 87.222656 L 458.46875 193.804688 Z M 458.335938 193.804688 " fill-opacity="1" fill-rule="nonzero"/><path fill="#0a163d" d="M 496.777344 194.46875 L 457.671875 194.46875 L 457.671875 87.222656 C 457.671875 76.484375 466.421875 67.601562 477.292969 67.601562 C 488.160156 67.601562 496.910156 76.351562 496.910156 87.222656 L 496.910156 194.46875 Z M 458.996094 193.011719 L 495.320312 193.011719 L 495.320312 87.222656 C 495.320312 77.148438 487.101562 69.0625 477.160156 69.0625 C 467.214844 69.0625 458.996094 77.28125 458.996094 87.222656 Z M 458.996094 193.011719 " fill-opacity="1" fill-rule="nonzero"/><path fill="#0a163d" d="M 238.539062 306.75 L 337.699219 306.75 L 337.699219 405.910156 L 238.539062 405.910156 Z M 238.539062 306.75 " fill-opacity="1" fill-rule="nonzero"/><path fill="#ff5757" d="M 228.464844 306.75 L 327.625 306.75 L 327.625 405.910156 L 228.464844 405.910156 Z M 228.464844 306.75 " fill-opacity="1" fill-rule="nonzero"/><path fill="#0a163d" d="M 249.144531 306.75 L 268.632812 306.75 L 268.632812 340.554688 L 249.144531 340.554688 Z M 249.144531 306.75 " fill-opacity="1" fill-rule="nonzero"/><g mask="url(#9680580a00)"><g transform="matrix(1, 0, 0, 1, 282, 390)"><g clip-path="url(#bf1e6db9f2)"><g clip-path="url(#08a039f69c)"><path fill="#0a163d" d="M 0.949219 1.0625 L 34.222656 1.0625 L 34.222656 6.5 L 0.949219 6.5 Z M 0.949219 1.0625 " fill-opacity="1" fill-rule="nonzero"/></g></g></g></g><path fill="#0a163d" d="M 345.785156 306.75 L 444.945312 306.75 L 444.945312 405.910156 L 345.785156 405.910156 Z M 345.785156 306.75 " fill-opacity="1" fill-rule="nonzero"/><path fill="#ff5757" d="M 335.710938 306.75 L 434.871094 306.75 L 434.871094 405.910156 L 335.710938 405.910156 Z M 335.710938 306.75 " fill-opacity="1" fill-rule="nonzero"/><path fill="#0a163d" d="M 356.390625 306.75 L 375.878906 306.75 L 375.878906 340.554688 L 356.390625 340.554688 Z M 356.390625 306.75 " fill-opacity="1" fill-rule="nonzero"/><g mask="url(#32c6ea3c7f)"><g transform="matrix(1, 0, 0, 1, 389, 390)"><g clip-path="url(#e53cb491b5)"><g clip-path="url(#7d5570aa8f)"><path fill="#0a163d" d="M 1.328125 1.0625 L 34.601562 1.0625 L 34.601562 6.5 L 1.328125 6.5 Z M 1.328125 1.0625 " fill-opacity="1" fill-rule="nonzero"/></g></g></g></g><path fill="#0a163d" d="M 453.164062 306.75 L 552.324219 306.75 L 552.324219 405.910156 L 453.164062 405.910156 Z M 453.164062 306.75 " fill-opacity="1" fill-rule="nonzero"/><path fill="#ff5757" d="M 443.089844 306.75 L 542.25 306.75 L 542.25 405.910156 L 443.089844 405.910156 Z M 443.089844 306.75 " fill-opacity="1" fill-rule="nonzero"/><path fill="#0a163d" d="M 463.769531 306.75 L 483.257812 306.75 L 483.257812 340.554688 L 463.769531 340.554688 Z M 463.769531 306.75 " fill-opacity="1" fill-rule="nonzero"/><g mask="url(#7cfc47b0b7)"><g transform="matrix(1, 0, 0, 1, 496, 390)"><g clip-path="url(#757601215e)"><g clip-path="url(#016eeef68c)"><path fill="#0a163d" d="M 1.574219 1.0625 L 34.847656 1.0625 L 34.847656 6.5 L 1.574219 6.5 Z M 1.574219 1.0625 " fill-opacity="1" fill-rule="nonzero"/></g></g></g></g><path fill="#0a163d" d="M 238.539062 205.738281 L 337.699219 205.738281 L 337.699219 304.894531 L 238.539062 304.894531 Z M 238.539062 205.738281 " fill-opacity="1" fill-rule="nonzero"/><path fill="#ff5757" d="M 228.464844 205.738281 L 327.625 205.738281 L 327.625 304.894531 L 228.464844 304.894531 Z M 228.464844 205.738281 " fill-opacity="1" fill-rule="nonzero"/><path fill="#0a163d" d="M 249.144531 205.738281 L 268.632812 205.738281 L 268.632812 239.542969 L 249.144531 239.542969 Z M 249.144531 205.738281 " fill-opacity="1" fill-rule="nonzero"/><g mask="url(#8f53297528)"><g transform="matrix(1, 0, 0, 1, 282, 289)"><g clip-path="url(#1ce6620fa4)"><g clip-path="url(#6db62f7612)"><path fill="#0a163d" d="M 0.949219 0.914062 L 34.222656 0.914062 L 34.222656 6.351562 L 0.949219 6.351562 Z M 0.949219 0.914062 " fill-opacity="1" fill-rule="nonzero"/></g></g></g></g><path fill="#0a163d" d="M 345.785156 205.738281 L 444.945312 205.738281 L 444.945312 304.894531 L 345.785156 304.894531 Z M 345.785156 205.738281 " fill-opacity="1" fill-rule="nonzero"/><path fill="#ff5757" d="M 335.710938 205.738281 L 434.871094 205.738281 L 434.871094 304.894531 L 335.710938 304.894531 Z M 335.710938 205.738281 " fill-opacity="1" fill-rule="nonzero"/><path fill="#0a163d" d="M 356.390625 205.738281 L 375.878906 205.738281 L 375.878906 239.542969 L 356.390625 239.542969 Z M 356.390625 205.738281 " fill-opacity="1" fill-rule="nonzero"/><g mask="url(#a11827f571)"><g transform="matrix(1, 0, 0, 1, 389, 289)"><g clip-path="url(#bd2468caa2)"><g clip-path="url(#f23b579cb3)"><path fill="#0a163d" d="M 1.328125 0.914062 L 34.601562 0.914062 L 34.601562 6.351562 L 1.328125 6.351562 Z M 1.328125 0.914062 " fill-opacity="1" fill-rule="nonzero"/></g></g></g></g><path fill="#0a163d" d="M 453.164062 205.738281 L 552.324219 205.738281 L 552.324219 304.894531 L 453.164062 304.894531 Z M 453.164062 205.738281 " fill-opacity="1" fill-rule="nonzero"/><path fill="#ff5757" d="M 443.089844 205.738281 L 542.25 205.738281 L 542.25 304.894531 L 443.089844 304.894531 Z M 443.089844 205.738281 " fill-opacity="1" fill-rule="nonzero"/><path fill="#0a163d" d="M 463.769531 205.738281 L 483.257812 205.738281 L 483.257812 239.542969 L 463.769531 239.542969 Z M 463.769531 205.738281 " fill-opacity="1" fill-rule="nonzero"/><g mask="url(#45a58b1b30)"><g transform="matrix(1, 0, 0, 1, 496, 289)"><g clip-path="url(#91c46b6d99)"><g clip-path="url(#16e58d31cb)"><path fill="#0a163d" d="M 1.574219 0.914062 L 34.847656 0.914062 L 34.847656 6.351562 L 1.574219 6.351562 Z M 1.574219 0.914062 " fill-opacity="1" fill-rule="nonzero"/></g></g></g></g><path fill="#0a163d" d="M 229.660156 203.21875 L 552.457031 203.21875 L 552.457031 205.605469 L 229.660156 205.605469 Z M 229.660156 203.21875 " fill-opacity="1" fill-rule="nonzero"/><path fill="#0a163d" d="M 251.796875 413.863281 L 300.183594 413.863281 L 300.183594 436.929688 L 251.796875 436.929688 Z M 251.796875 413.863281 " fill-opacity="1" fill-rule="nonzero"/><path fill="#0a163d" d="M 366.863281 413.863281 L 415.25 413.863281 L 415.25 436.929688 L 366.863281 436.929688 Z M 366.863281 413.863281 " fill-opacity="1" fill-rule="nonzero"/><path fill="#0a163d" d="M 481.929688 413.863281 L 530.316406 413.863281 L 530.316406 436.929688 L 481.929688 436.929688 Z M 481.929688 413.863281 " fill-opacity="1" fill-rule="nonzero"/><path fill="#0a163d" d="M 202.617188 405.644531 L 579.367188 405.644531 L 579.367188 416.25 L 202.617188 416.25 Z M 202.617188 405.644531 " fill-opacity="1" fill-rule="nonzero"/><path fill="#0a163d" d="M 229.660156 304.5 L 552.457031 304.5 L 552.457031 306.882812 L 229.660156 306.882812 Z M 229.660156 304.5 " fill-opacity="1" fill-rule="nonzero"/><path fill="#0a163d" d="M 238.539062 104.324219 L 337.699219 104.324219 L 337.699219 203.484375 L 238.539062 203.484375 Z M 238.539062 104.324219 " fill-opacity="1" fill-rule="nonzero"/><path fill="#ff5757" d="M 228.464844 104.324219 L 327.625 104.324219 L 327.625 203.484375 L 228.464844 203.484375 Z M 228.464844 104.324219 " fill-opacity="1" fill-rule="nonzero"/><path fill="#0a163d" d="M 249.144531 104.324219 L 268.632812 104.324219 L 268.632812 138.128906 L 249.144531 138.128906 Z M 249.144531 104.324219 " fill-opacity="1" fill-rule="nonzero"/><g mask="url(#aa3bae185f)"><g transform="matrix(1, 0, 0, 1, 282, 187)"><g clip-path="url(#f11edc5a9f)"><g clip-path="url(#b2ef89627f)"><path fill="#0a163d" d="M 0.949219 1.503906 L 34.222656 1.503906 L 34.222656 6.9375 L 0.949219 6.9375 Z M 0.949219 1.503906 " fill-opacity="1" fill-rule="nonzero"/></g></g></g></g><path fill="#0a163d" d="M 345.785156 104.324219 L 444.945312 104.324219 L 444.945312 203.484375 L 345.785156 203.484375 Z M 345.785156 104.324219 " fill-opacity="1" fill-rule="nonzero"/><path fill="#ff5757" d="M 335.710938 104.324219 L 434.871094 104.324219 L 434.871094 203.484375 L 335.710938 203.484375 Z M 335.710938 104.324219 " fill-opacity="1" fill-rule="nonzero"/><path fill="#0a163d" d="M 356.390625 104.324219 L 375.878906 104.324219 L 375.878906 138.128906 L 356.390625 138.128906 Z M 356.390625 104.324219 " fill-opacity="1" fill-rule="nonzero"/><g mask="url(#0f1decb89a)"><g transform="matrix(1, 0, 0, 1, 389, 187)"><g clip-path="url(#a09f0e6ea4)"><path fill="#0a163d" d="M 1.328125 1.503906 L 34.601562 1.503906 L 34.601562 6.9375 L 1.328125 6.9375 Z M 1.328125 1.503906 " fill-opacity="1" fill-rule="nonzero"/></g></g></g><path fill="#0a163d" d="M 453.164062 104.324219 L 552.324219 104.324219 L 552.324219 203.484375 L 453.164062 203.484375 Z M 453.164062 104.324219 " fill-opacity="1" fill-rule="nonzero"/><path fill="#ff5757" d="M 443.089844 104.324219 L 542.25 104.324219 L 542.25 203.484375 L 443.089844 203.484375 Z M 443.089844 104.324219 " fill-opacity="1" fill-rule="nonzero"/><path fill="#0a163d" d="M 463.769531 104.324219 L 483.257812 104.324219 L 483.257812 138.128906 L 463.769531 138.128906 Z M 463.769531 104.324219 " fill-opacity="1" fill-rule="nonzero"/><g mask="url(#48ceea7951)"><g transform="matrix(1, 0, 0, 1, 496, 187)"><g clip-path="url(#8e5f315dcf)"><path fill="#0a163d" d="M 1.574219 1.503906 L 34.847656 1.503906 L 34.847656 6.9375 L 1.574219 6.9375 Z M 1.574219 1.503906 " fill-opacity="1" fill-rule="nonzero"/></g></g></g><path fill="#ffe8e8" d="M 477.160156 68.265625 C 471.988281 68.265625 467.214844 70.386719 463.769531 73.835938 C 460.324219 77.28125 458.203125 81.921875 458.203125 87.222656 L 458.203125 256.90625 C 458.203125 260.355469 455.417969 263.136719 451.972656 263.136719 L 328.289062 263.136719 C 324.839844 263.136719 322.058594 260.355469 322.058594 256.90625 L 322.058594 85.367188 C 322.058594 75.953125 329.746094 68.265625 339.15625 68.265625 Z M 477.160156 68.265625 " fill-opacity="1" fill-rule="nonzero"/><path fill="#0a163d" d="M 451.972656 263.800781 L 328.289062 263.800781 C 324.441406 263.800781 321.261719 260.617188 321.261719 256.773438 L 321.261719 85.367188 C 321.261719 75.558594 329.214844 67.601562 339.027344 67.601562 L 477.160156 67.601562 L 477.160156 68.929688 C 472.253906 68.929688 467.746094 70.785156 464.300781 74.230469 C 460.851562 77.679688 458.996094 82.1875 458.996094 87.089844 L 458.996094 256.773438 C 458.996094 260.75 455.816406 263.800781 451.972656 263.800781 Z M 339.15625 69.0625 C 330.144531 69.0625 322.71875 76.351562 322.71875 85.367188 L 322.71875 256.773438 C 322.71875 259.824219 325.238281 262.34375 328.289062 262.34375 L 451.972656 262.34375 C 455.019531 262.34375 457.539062 259.824219 457.539062 256.773438 L 457.539062 87.089844 C 457.539062 81.921875 459.527344 76.882812 463.238281 73.304688 C 465.09375 71.449219 467.347656 69.855469 469.867188 68.929688 L 339.15625 68.929688 Z M 339.15625 69.0625 " fill-opacity="1" fill-rule="nonzero"/><path fill="#0a163d" d="M 335.976562 220.714844 L 398.28125 220.714844 L 398.28125 223.898438 L 335.976562 223.898438 Z M 335.976562 220.714844 " fill-opacity="1" fill-rule="nonzero"/><path fill="#0a163d" d="M 414.191406 220.714844 L 441.632812 220.714844 L 441.632812 223.898438 L 414.191406 223.898438 Z M 414.191406 220.714844 " fill-opacity="1" fill-rule="nonzero"/><path fill="#0a163d" d="M 335.976562 231.585938 L 398.28125 231.585938 L 398.28125 234.769531 L 335.976562 234.769531 Z M 335.976562 231.585938 " fill-opacity="1" fill-rule="nonzero"/><path fill="#0a163d" d="M 414.191406 231.585938 L 441.632812 231.585938 L 441.632812 234.769531 L 414.191406 234.769531 Z M 414.191406 231.585938 " fill-opacity="1" fill-rule="nonzero"/><path fill="#0a163d" d="M 366.335938 103.925781 L 444.148438 103.925781 L 444.148438 106.3125 L 366.335938 106.3125 Z M 366.335938 103.925781 " fill-opacity="1" fill-rule="nonzero"/><path fill="#0a163d" d="M 366.335938 111.351562 L 419.226562 111.351562 L 419.226562 113.734375 L 366.335938 113.734375 Z M 366.335938 111.351562 " fill-opacity="1" fill-rule="nonzero"/><path fill="#e1605b" d="M 356.921875 108.832031 C 356.921875 109.511719 356.855469 110.183594 356.722656 110.847656 C 356.589844 111.515625 356.394531 112.160156 356.132812 112.789062 C 355.875 113.414062 355.554688 114.011719 355.179688 114.574219 C 354.800781 115.140625 354.375 115.664062 353.894531 116.144531 C 353.414062 116.621094 352.890625 117.050781 352.328125 117.429688 C 351.761719 117.804688 351.164062 118.125 350.539062 118.382812 C 349.910156 118.644531 349.265625 118.839844 348.597656 118.972656 C 347.933594 119.105469 347.261719 119.171875 346.582031 119.171875 C 345.902344 119.171875 345.230469 119.105469 344.566406 118.972656 C 343.898438 118.839844 343.253906 118.644531 342.625 118.382812 C 341.996094 118.125 341.402344 117.804688 340.835938 117.429688 C 340.273438 117.050781 339.75 116.621094 339.269531 116.144531 C 338.789062 115.664062 338.363281 115.140625 337.984375 114.574219 C 337.605469 114.011719 337.289062 113.414062 337.027344 112.789062 C 336.769531 112.160156 336.574219 111.515625 336.441406 110.847656 C 336.308594 110.183594 336.242188 109.511719 336.242188 108.832031 C 336.242188 108.152344 336.308594 107.480469 336.441406 106.8125 C 336.574219 106.148438 336.769531 105.5 337.027344 104.875 C 337.289062 104.246094 337.605469 103.652344 337.984375 103.085938 C 338.363281 102.523438 338.789062 102 339.269531 101.519531 C 339.75 101.039062 340.273438 100.609375 340.835938 100.234375 C 341.402344 99.855469 341.996094 99.539062 342.625 99.277344 C 343.253906 99.019531 343.898438 98.824219 344.566406 98.691406 C 345.230469 98.558594 345.902344 98.492188 346.582031 98.492188 C 347.261719 98.492188 347.933594 98.558594 348.597656 98.691406 C 349.265625 98.824219 349.910156 99.019531 350.539062 99.277344 C 351.164062 99.539062 351.761719 99.855469 352.328125 100.234375 C 352.890625 100.609375 353.414062 101.039062 353.894531 101.519531 C 354.375 102 354.800781 102.523438 355.179688 103.085938 C 355.554688 103.652344 355.875 104.246094 356.132812 104.875 C 356.394531 105.5 356.589844 106.148438 356.722656 106.8125 C 356.855469 107.480469 356.921875 108.152344 356.921875 108.832031 Z M 356.921875 108.832031 " fill-opacity="1" fill-rule="nonzero"/><path fill="#0a163d" d="M 342.207031 112.675781 L 339.953125 107.242188 L 341.148438 106.710938 L 342.871094 110.820312 L 353.078125 105.382812 L 353.742188 106.578125 Z M 342.207031 112.675781 " fill-opacity="1" fill-rule="nonzero"/><path fill="#0a163d" d="M 366.335938 142.769531 L 444.148438 142.769531 L 444.148438 145.15625 L 366.335938 145.15625 Z M 366.335938 142.769531 " fill-opacity="1" fill-rule="nonzero"/><path fill="#0a163d" d="M 366.335938 150.324219 L 419.226562 150.324219 L 419.226562 152.710938 L 366.335938 152.710938 Z M 366.335938 150.324219 " fill-opacity="1" fill-rule="nonzero"/><path fill="#e1605b" d="M 356.921875 147.671875 C 356.921875 148.351562 356.855469 149.023438 356.722656 149.691406 C 356.589844 150.355469 356.394531 151.003906 356.132812 151.628906 C 355.875 152.257812 355.554688 152.851562 355.179688 153.417969 C 354.800781 153.980469 354.375 154.503906 353.894531 154.984375 C 353.414062 155.464844 352.890625 155.894531 352.328125 156.269531 C 351.761719 156.648438 351.164062 156.964844 350.539062 157.226562 C 349.910156 157.484375 349.265625 157.683594 348.597656 157.816406 C 347.933594 157.945312 347.261719 158.011719 346.582031 158.011719 C 345.902344 158.011719 345.230469 157.945312 344.566406 157.816406 C 343.898438 157.683594 343.253906 157.484375 342.625 157.226562 C 341.996094 156.964844 341.402344 156.648438 340.835938 156.269531 C 340.273438 155.894531 339.75 155.464844 339.269531 154.984375 C 338.789062 154.503906 338.363281 153.980469 337.984375 153.417969 C 337.605469 152.851562 337.289062 152.257812 337.027344 151.628906 C 336.769531 151.003906 336.574219 150.355469 336.441406 149.691406 C 336.308594 149.023438 336.242188 148.351562 336.242188 147.671875 C 336.242188 146.992188 336.308594 146.320312 336.441406 145.65625 C 336.574219 144.988281 336.769531 144.34375 337.027344 143.714844 C 337.289062 143.089844 337.605469 142.492188 337.984375 141.929688 C 338.363281 141.363281 338.789062 140.839844 339.269531 140.363281 C 339.75 139.882812 340.273438 139.453125 340.835938 139.074219 C 341.402344 138.699219 341.996094 138.378906 342.625 138.121094 C 343.253906 137.859375 343.898438 137.664062 344.566406 137.53125 C 345.230469 137.398438 345.902344 137.332031 346.582031 137.332031 C 347.261719 137.332031 347.933594 137.398438 348.597656 137.53125 C 349.265625 137.664062 349.910156 137.859375 350.539062 138.121094 C 351.164062 138.378906 351.761719 138.699219 352.328125 139.074219 C 352.890625 139.453125 353.414062 139.882812 353.894531 140.363281 C 354.375 140.839844 354.800781 141.363281 355.179688 141.929688 C 355.554688 142.492188 355.875 143.089844 356.132812 143.714844 C 356.394531 144.34375 356.589844 144.988281 356.722656 145.65625 C 356.855469 146.320312 356.921875 146.992188 356.921875 147.671875 Z M 356.921875 147.671875 " fill-opacity="1" fill-rule="nonzero"/><path fill="#0a163d" d="M 342.207031 151.648438 L 339.953125 146.082031 L 341.148438 145.550781 L 342.871094 149.660156 L 353.078125 144.226562 L 353.742188 145.417969 Z M 342.207031 151.648438 " fill-opacity="1" fill-rule="nonzero"/><path fill="#0a163d" d="M 366.335938 181.609375 L 444.148438 181.609375 L 444.148438 183.996094 L 366.335938 183.996094 Z M 366.335938 181.609375 " fill-opacity="1" fill-rule="nonzero"/><path fill="#0a163d" d="M 366.335938 189.167969 L 419.226562 189.167969 L 419.226562 191.550781 L 366.335938 191.550781 Z M 366.335938 189.167969 " fill-opacity="1" fill-rule="nonzero"/><path fill="#e1605b" d="M 356.921875 186.648438 C 356.921875 187.328125 356.855469 188 356.722656 188.664062 C 356.589844 189.332031 356.394531 189.976562 356.132812 190.605469 C 355.875 191.230469 355.554688 191.828125 355.179688 192.390625 C 354.800781 192.957031 354.375 193.480469 353.894531 193.957031 C 353.414062 194.4375 352.890625 194.867188 352.328125 195.246094 C 351.761719 195.621094 351.164062 195.941406 350.539062 196.199219 C 349.910156 196.460938 349.265625 196.65625 348.597656 196.789062 C 347.933594 196.921875 347.261719 196.988281 346.582031 196.988281 C 345.902344 196.988281 345.230469 196.921875 344.566406 196.789062 C 343.898438 196.65625 343.253906 196.460938 342.625 196.199219 C 341.996094 195.941406 341.402344 195.621094 340.835938 195.246094 C 340.273438 194.867188 339.75 194.4375 339.269531 193.957031 C 338.789062 193.480469 338.363281 192.957031 337.984375 192.390625 C 337.605469 191.828125 337.289062 191.230469 337.027344 190.605469 C 336.769531 189.976562 336.574219 189.332031 336.441406 188.664062 C 336.308594 188 336.242188 187.328125 336.242188 186.648438 C 336.242188 185.96875 336.308594 185.296875 336.441406 184.628906 C 336.574219 183.964844 336.769531 183.316406 337.027344 182.691406 C 337.289062 182.0625 337.605469 181.46875 337.984375 180.902344 C 338.363281 180.339844 338.789062 179.816406 339.269531 179.335938 C 339.75 178.855469 340.273438 178.425781 340.835938 178.050781 C 341.402344 177.671875 341.996094 177.355469 342.625 177.09375 C 343.253906 176.835938 343.898438 176.636719 344.566406 176.507812 C 345.230469 176.375 345.902344 176.308594 346.582031 176.308594 C 347.261719 176.308594 347.933594 176.375 348.597656 176.507812 C 349.265625 176.636719 349.910156 176.835938 350.539062 177.09375 C 351.164062 177.355469 351.761719 177.671875 352.328125 178.050781 C 352.890625 178.425781 353.414062 178.855469 353.894531 179.335938 C 354.375 179.816406 354.800781 180.339844 355.179688 180.902344 C 355.554688 181.46875 355.875 182.0625 356.132812 182.691406 C 356.394531 183.316406 356.589844 183.964844 356.722656 184.628906 C 356.855469 185.296875 356.921875 185.96875 356.921875 186.648438 Z M 356.921875 186.648438 " fill-opacity="1" fill-rule="nonzero"/><path fill="#0a163d" d="M 342.207031 190.492188 L 339.953125 184.925781 L 341.148438 184.394531 L 342.871094 188.503906 L 353.078125 183.066406 L 353.742188 184.261719 Z M 342.207031 190.492188 " fill-opacity="1" fill-rule="nonzero"/><path fill="#fdf4bd" d="M 138.453125 362.960938 C 138.054688 384.566406 141.503906 402.066406 146.011719 402.199219 C 150.515625 402.332031 154.492188 384.832031 154.890625 363.226562 C 155.289062 341.617188 151.84375 324.117188 147.335938 323.984375 C 142.828125 323.984375 138.851562 341.351562 138.453125 362.960938 Z M 138.453125 362.960938 " fill-opacity="1" fill-rule="nonzero"/><path fill="#fdf4bd" d="M 163.90625 363.09375 C 166.027344 384.566406 171.328125 401.667969 175.835938 401.269531 C 180.34375 400.875 182.332031 383.109375 180.210938 361.632812 C 178.089844 340.160156 172.789062 323.058594 168.28125 323.457031 C 163.773438 323.851562 161.785156 341.617188 163.90625 363.09375 Z M 163.90625 363.09375 " fill-opacity="1" fill-rule="nonzero"/><path fill="#fdf4bd" d="M 149.191406 395.835938 C 141.636719 383.90625 118.832031 437.726562 115.519531 452.574219 C 112.207031 467.421875 121.085938 454.296875 133.152344 433.617188 C 145.214844 412.804688 152.109375 400.609375 149.191406 395.835938 Z M 149.191406 395.835938 " fill-opacity="1" fill-rule="nonzero"/><path fill="#fdf4bd" d="M 177.5625 394.777344 C 166.558594 385.894531 162.316406 444.222656 163.90625 459.203125 C 165.496094 474.316406 169.738281 459.070312 174.511719 435.605469 C 179.285156 412.140625 181.933594 398.355469 177.5625 394.777344 Z M 177.5625 394.777344 " fill-opacity="1" fill-rule="nonzero"/><path fill="#fdf4bd" d="M 156.484375 360.175781 C 156.484375 360.175781 156.484375 390.269531 152.503906 401.007812 C 148.527344 411.742188 121.617188 454.296875 121.617188 454.296875 L 113.929688 450.585938 C 113.929688 450.585938 125.460938 410.550781 138.320312 396.101562 C 138.320312 396.101562 128.511719 324.914062 146.671875 322.261719 C 159.132812 320.539062 156.484375 360.175781 156.484375 360.175781 Z M 156.484375 360.175781 " fill-opacity="1" fill-rule="nonzero"/><path fill="#fdf4bd" d="M 121.617188 454.296875 C 121.617188 454.296875 121.085938 456.152344 123.472656 457.214844 C 125.726562 458.273438 120.027344 459.734375 120.027344 459.734375 L 112.867188 453.898438 L 113.265625 451.910156 L 114.0625 450.585938 Z M 121.617188 454.296875 " fill-opacity="1" fill-rule="nonzero"/><path fill="#fdf4bd" d="M 180.609375 353.015625 C 180.609375 353.015625 183.660156 384.171875 182.464844 397.160156 C 181.273438 410.152344 169.207031 463.046875 169.207031 463.046875 L 160.460938 461.324219 C 160.460938 461.324219 160.855469 425.398438 168.28125 398.886719 C 168.28125 398.886719 151.445312 325.046875 168.28125 321.464844 C 179.417969 319.082031 180.609375 353.015625 180.609375 353.015625 Z M 180.609375 353.015625 " fill-opacity="1" fill-rule="nonzero"/><path fill="#fdf4bd" d="M 160.460938 461.324219 L 160.460938 464.371094 L 168.679688 468.214844 L 174.777344 467.15625 L 171.460938 465.566406 C 171.460938 465.566406 169.339844 464.238281 169.078125 462.914062 C 169.078125 461.722656 160.460938 461.324219 160.460938 461.324219 Z M 160.460938 461.324219 " fill-opacity="1" fill-rule="nonzero"/><path fill="#0a163d" d="M 160.460938 462.25 C 160.460938 462.25 166.292969 468.878906 171.59375 465.566406 C 171.59375 465.566406 178.886719 467.554688 178.621094 469.808594 C 178.355469 472.0625 173.449219 470.867188 173.449219 470.867188 L 159.796875 469.144531 C 159.664062 469.144531 158.867188 465.964844 160.460938 462.25 Z M 160.460938 462.25 " fill-opacity="1" fill-rule="nonzero"/><path fill="#0a163d" d="M 113.132812 451.777344 C 113.132812 451.777344 117.640625 459.335938 123.339844 457.214844 C 123.339844 457.214844 130.101562 460.527344 129.4375 462.78125 C 128.777344 464.902344 124.136719 462.78125 124.136719 462.78125 L 111.011719 458.273438 C 111.011719 458.273438 111.011719 454.960938 113.132812 451.777344 Z M 113.132812 451.777344 " fill-opacity="1" fill-rule="nonzero"/><path fill="#0a163d" d="M 133.8125 313.378906 C 133.8125 313.378906 128.511719 325.972656 130.898438 343.074219 C 133.285156 360.441406 134.476562 376.613281 129.570312 394.378906 C 127.1875 403.257812 122.414062 415.722656 122.414062 415.722656 C 122.414062 415.722656 158.074219 430.964844 180.609375 423.808594 C 180.609375 423.808594 185.25 404.320312 185.78125 385.761719 C 186.308594 367.203125 179.019531 327.828125 176.898438 314.042969 C 174.777344 300.390625 133.8125 313.378906 133.8125 313.378906 Z M 133.8125 313.378906 " fill-opacity="1" fill-rule="nonzero"/><path fill="#fdf4bd" d="M 162.183594 248.953125 C 160.59375 250.808594 160.460938 253.328125 161.386719 255.582031 C 165.628906 265.390625 181.40625 303.4375 188.695312 300.785156 C 197.445312 297.605469 180.609375 264.464844 175.441406 256.90625 C 170.933594 250.542969 165.894531 244.578125 162.183594 248.953125 Z M 162.183594 248.953125 " fill-opacity="1" fill-rule="nonzero"/><path fill="#fdf4bd" d="M 181.800781 266.71875 L 189.09375 282.359375 L 194.265625 273.476562 L 203.410156 281.167969 C 203.410156 281.167969 195.589844 303.703125 189.09375 302.113281 C 182.730469 300.652344 174.777344 287.925781 174.777344 287.925781 L 171.992188 267.644531 Z M 181.800781 266.71875 " fill-opacity="1" fill-rule="nonzero"/><path fill="#fdf4bd" d="M 189.890625 301.582031 C 192.144531 301.316406 194 299.59375 195.058594 297.605469 C 199.433594 287.796875 214.945312 252.796875 211.761719 249.351562 C 208.183594 245.375 183.394531 295.085938 184.851562 297.605469 C 185.914062 299.328125 186.839844 301.980469 189.890625 301.582031 Z M 189.890625 301.582031 " fill-opacity="1" fill-rule="nonzero"/><path fill="#fdf4bd" d="M 203.542969 281.167969 L 211.894531 256.773438 L 205.53125 252.796875 L 194.265625 273.476562 " fill-opacity="1" fill-rule="nonzero"/><path fill="#e1605b" d="M 206.59375 275.203125 C 206.59375 275.203125 197.179688 302.640625 190.550781 303.304688 C 190.285156 303.304688 190.152344 303.304688 189.890625 303.304688 C 183.792969 302.90625 176.101562 290.578125 171.859375 282.890625 C 169.871094 279.3125 168.679688 276.660156 168.679688 276.660156 C 166.824219 272.949219 165.496094 269.898438 164.570312 268.042969 C 161.253906 261.148438 156.085938 250.675781 163.375 246.300781 C 170.800781 242.058594 178.886719 259.824219 181.800781 265.390625 C 182.066406 265.921875 182.332031 266.320312 182.597656 266.980469 L 189.359375 280.769531 L 195.988281 268.96875 Z M 206.59375 275.203125 " fill-opacity="1" fill-rule="nonzero"/><path fill="#ffe8e8" d="M 195.855469 269.5 L 206.460938 275.597656 C 206.726562 275.730469 207.121094 275.597656 207.121094 275.332031 L 208.050781 273.210938 C 208.183594 272.949219 208.050781 272.683594 207.785156 272.550781 L 197.445312 266.585938 C 197.179688 266.453125 196.914062 266.585938 196.78125 266.71875 L 195.722656 268.574219 C 195.589844 268.96875 195.589844 269.234375 195.855469 269.5 Z M 195.855469 269.5 " fill-opacity="1" fill-rule="nonzero"/><path fill="#fdf4bd" d="M 219.054688 250.675781 L 217.332031 253.59375 C 216.136719 254.917969 215.472656 256.113281 213.882812 256.90625 L 209.375 258.628906 L 205.664062 253.726562 L 205.265625 253.0625 L 206.195312 250.675781 L 206.460938 250.144531 C 206.726562 249.351562 207.253906 248.6875 207.785156 248.15625 L 210.96875 246.433594 C 210.96875 246.433594 212.027344 246.699219 210.570312 248.15625 C 210.171875 248.421875 210.039062 249.085938 209.90625 249.75 C 209.90625 249.882812 209.90625 249.882812 209.90625 250.015625 L 211.628906 248.820312 L 215.871094 246.300781 C 216.933594 245.640625 218.789062 245.773438 219.582031 246.964844 C 219.453125 246.832031 220.511719 248.820312 219.054688 250.675781 Z M 219.054688 250.675781 " fill-opacity="1" fill-rule="nonzero"/><path fill="#fdf4bd" d="M 146.273438 234.105469 L 157.542969 234.105469 L 157.542969 252.53125 L 146.273438 252.53125 Z M 146.273438 234.105469 " fill-opacity="1" fill-rule="nonzero"/><path fill="#0a163d" d="M 146.273438 233.308594 L 146.273438 236.492188 C 148.527344 237.289062 152.109375 240.867188 153.832031 240.867188 C 155.554688 240.867188 156.746094 240.070312 157.410156 239.410156 L 157.410156 235.035156 L 149.191406 233.308594 Z M 146.273438 233.308594 " fill-opacity="1" fill-rule="nonzero"/><path fill="#fdf4bd" d="M 141.503906 223.101562 C 141.503906 230.394531 150.253906 239.671875 156.351562 239.542969 C 160.988281 239.542969 163.640625 230.394531 163.640625 223.101562 C 163.640625 215.8125 158.734375 209.847656 152.503906 209.847656 C 146.539062 209.847656 141.503906 215.8125 141.503906 223.101562 Z M 141.503906 223.101562 " fill-opacity="1" fill-rule="nonzero"/><path fill="#0a163d" d="M 160.855469 217.933594 C 160.855469 217.933594 159.398438 219.789062 156.613281 221.246094 C 155.15625 222.042969 152.902344 223.234375 151.179688 223.898438 C 145.746094 225.886719 146.539062 234.238281 146.539062 234.238281 C 146.539062 234.238281 137.261719 228.007812 142.296875 216.210938 C 146.273438 206.664062 159.796875 209.449219 160.855469 213.957031 C 160.855469 213.957031 165.097656 215.8125 163.90625 221.511719 C 163.773438 221.378906 163.242188 218.464844 160.855469 217.933594 Z M 160.855469 217.933594 " fill-opacity="1" fill-rule="nonzero"/><path fill="#0a163d" d="M 142.429688 213.292969 C 142.03125 213.027344 141.636719 212.894531 141.238281 212.628906 C 138.453125 211.304688 135.539062 210.242188 132.488281 211.4375 C 129.042969 212.628906 127.714844 215.945312 127.316406 219.257812 C 127.054688 221.378906 127.316406 223.367188 127.316406 225.488281 C 127.449219 227.476562 127.054688 229.597656 126.65625 231.585938 C 126.125 234.769531 124.667969 238.214844 125.59375 241.398438 C 126.390625 244.445312 129.570312 246.566406 132.621094 246.699219 C 136.199219 246.699219 138.1875 243.519531 138.851562 240.335938 C 139.25 238.214844 138.984375 235.960938 138.453125 233.839844 C 137.921875 231.851562 137.128906 229.863281 137.128906 227.742188 C 137.128906 225.222656 137.789062 222.574219 139.382812 220.585938 " fill-opacity="1" fill-rule="nonzero"/><path fill="#e1605b" d="M 143.492188 213.957031 C 143.492188 213.957031 141.503906 217.003906 140.972656 220.980469 L 139.25 220.714844 C 139.25 220.714844 140.839844 214.484375 142.296875 213.425781 Z M 143.492188 213.957031 " fill-opacity="1" fill-rule="nonzero"/><path fill="#ffe8e8" d="M 174.378906 296.277344 C 175.441406 307.015625 176.367188 310.992188 176.367188 310.992188 C 176.367188 310.992188 164.039062 312.851562 151.046875 312.585938 C 144.683594 312.453125 138.320312 311.65625 133.019531 309.933594 C 133.019531 309.933594 133.945312 303.171875 133.285156 291.109375 C 133.152344 287.398438 132.621094 283.023438 131.957031 278.25 C 131.296875 273.34375 130.632812 268.175781 130.234375 263.402344 C 129.703125 257.570312 129.4375 252.265625 130.101562 248.953125 C 131.03125 244.046875 146.140625 242.058594 146.140625 242.058594 C 146.140625 242.058594 152.242188 249.21875 155.6875 247.097656 C 157.011719 246.300781 157.542969 242.589844 157.542969 242.589844 C 163.109375 243.386719 164.96875 244.578125 166.558594 246.300781 C 171.859375 252.136719 178.753906 265.789062 178.753906 274.40625 C 178.753906 284.347656 173.320312 285.675781 174.378906 296.277344 Z M 174.378906 296.277344 " fill-opacity="1" fill-rule="nonzero"/><path fill="#e1605b" d="M 157.675781 242.324219 C 157.675781 242.324219 166.292969 241.925781 170.933594 251.871094 C 175.570312 261.8125 179.550781 267.644531 179.285156 275.597656 C 179.019531 283.554688 173.980469 288.855469 175.308594 297.472656 C 176.632812 306.222656 177.957031 310.730469 178.488281 317.09375 C 178.886719 323.457031 179.679688 327.035156 179.679688 327.035156 C 179.679688 327.035156 171.992188 329.949219 169.472656 328.226562 C 169.472656 328.226562 166.292969 305.824219 167.351562 294.027344 C 168.546875 282.226562 169.339844 272.019531 166.558594 264.464844 C 163.242188 255.449219 158.339844 244.046875 157.675781 242.324219 Z M 157.675781 242.324219 " fill-opacity="1" fill-rule="nonzero"/><path fill="#0a163d" d="M 176.898438 286.070312 L 176.632812 285.9375 C 176.765625 285.542969 176.898438 285.144531 177.03125 284.746094 C 177.957031 281.828125 179.019531 278.914062 179.152344 275.464844 C 179.417969 269.101562 176.898438 264.066406 173.449219 257.171875 C 172.65625 255.449219 171.726562 253.726562 170.800781 251.871094 L 171.066406 251.738281 C 171.992188 253.59375 172.789062 255.449219 173.714844 257.039062 C 177.164062 263.933594 179.679688 268.96875 179.417969 275.464844 C 179.285156 278.914062 178.355469 281.960938 177.296875 284.878906 C 177.164062 285.277344 177.03125 285.675781 176.898438 286.070312 Z M 176.898438 286.070312 " fill-opacity="1" fill-rule="nonzero"/><path fill="#e1605b" d="M 166.558594 327.566406 C 163.507812 331.9375 125.726562 329.816406 125.726562 329.816406 C 128.910156 314.707031 132.355469 304.628906 132.753906 292.699219 C 132.886719 290.046875 132.753906 287 132.355469 283.683594 C 131.296875 272.417969 128.511719 258.894531 128.910156 251.605469 C 128.910156 251.339844 128.910156 251.207031 129.042969 251.074219 C 130.234375 242.324219 146.011719 241.792969 146.011719 241.792969 C 146.011719 241.792969 157.941406 256.773438 160.988281 265.125 C 163.773438 272.683594 162.050781 284.613281 161.785156 294.953125 C 161.785156 294.953125 161.785156 294.953125 161.785156 295.085938 C 161.785156 296.148438 161.785156 297.207031 161.785156 298.269531 C 161.652344 309.535156 166.558594 327.566406 166.558594 327.566406 Z M 166.558594 327.566406 " fill-opacity="1" fill-rule="nonzero"/><path fill="#fdf4bd" d="M 133.546875 248.820312 C 131.558594 250.277344 130.898438 252.796875 131.296875 255.050781 C 133.152344 265.523438 140.042969 306.089844 147.867188 305.160156 C 157.011719 304.101562 148.132812 268.042969 144.683594 259.425781 C 141.902344 252.265625 138.320312 245.375 133.546875 248.820312 Z M 133.546875 248.820312 " fill-opacity="1" fill-rule="nonzero"/><path fill="#fdf4bd" d="M 152.902344 304.5 C 155.15625 304.367188 157.144531 302.773438 158.207031 300.652344 C 163.109375 291.109375 180.210938 256.773438 177.164062 253.195312 C 173.714844 249.085938 146.671875 297.605469 148 300.125 C 148.925781 302.113281 149.722656 304.761719 152.902344 304.5 Z M 152.902344 304.5 " fill-opacity="1" fill-rule="nonzero"/><path fill="#fdf4bd" d="M 182.066406 249.484375 L 181.800781 252.796875 C 181.539062 253.59375 181.539062 254.253906 181.273438 254.917969 C 181.007812 255.714844 180.742188 256.507812 180.210938 257.304688 L 176.898438 260.882812 L 171.460938 258.101562 L 170.800781 257.570312 L 170.402344 254.386719 C 170.269531 253.59375 170.402344 252.796875 170.800781 252.003906 L 172.921875 249.085938 C 172.921875 249.085938 173.980469 248.953125 173.320312 250.808594 C 173.054688 251.339844 173.320312 252.136719 173.449219 252.796875 L 173.980469 251.738281 L 174.378906 251.074219 L 177.03125 246.964844 C 177.691406 245.902344 179.417969 245.109375 180.742188 245.902344 C 180.742188 245.902344 182.464844 247.097656 182.066406 249.484375 Z M 182.066406 249.484375 " fill-opacity="1" fill-rule="nonzero"/><path fill="#0a163d" d="M 192.011719 243.386719 L 166.160156 253.726562 C 165.628906 253.859375 165.496094 254.386719 165.628906 254.917969 C 165.761719 255.316406 166.160156 255.449219 166.558594 255.449219 C 166.691406 255.449219 166.824219 255.449219 166.957031 255.449219 L 192.804688 245.109375 L 194.527344 243.652344 Z M 192.011719 243.386719 " fill-opacity="1" fill-rule="nonzero"/><path fill="#fdf4bd" d="M 182.066406 249.484375 L 181.800781 252.796875 C 181.539062 253.59375 181.539062 254.253906 181.273438 254.917969 L 173.714844 254.785156 L 173.449219 253.0625 L 174.511719 251.207031 L 177.164062 247.097656 C 177.824219 246.035156 179.550781 245.242188 180.875 246.035156 C 180.742188 245.902344 182.464844 247.097656 182.066406 249.484375 Z M 182.066406 249.484375 " fill-opacity="1" fill-rule="nonzero"/><path fill="#fdf4bd" d="M 165.894531 285.675781 L 176.5 260.617188 L 170.269531 257.4375 L 157.144531 278.117188 Z M 165.894531 285.675781 " fill-opacity="1" fill-rule="nonzero"/><path fill="#0a163d" d="M 214.8125 266.453125 L 201.023438 267.777344 L 216.933594 233.839844 L 230.71875 232.515625 Z M 214.8125 266.453125 " fill-opacity="1" fill-rule="nonzero"/><path fill="#fdf4bd" d="M 210.570312 248.023438 C 210.171875 248.289062 210.039062 248.953125 209.90625 249.617188 L 207.519531 252.136719 L 206.328125 250.542969 L 206.59375 250.015625 C 206.859375 249.21875 207.386719 248.554688 207.917969 248.023438 L 211.101562 246.300781 C 210.96875 246.300781 212.027344 246.699219 210.570312 248.023438 Z M 210.570312 248.023438 " fill-opacity="1" fill-rule="nonzero"/><path fill="#e1605b" d="M 160.0625 272.417969 L 152.242188 283.023438 L 149.191406 270.5625 C 149.058594 269.898438 148.925781 269.367188 148.792969 268.839844 C 147.335938 262.871094 142.828125 243.386719 134.476562 245.242188 C 125.59375 247.230469 129.835938 260.089844 131.425781 267.644531 C 131.824219 269.632812 132.621094 272.949219 133.546875 276.925781 C 133.546875 276.925781 141.902344 308.078125 150.515625 308.609375 C 157.410156 309.136719 169.871094 278.382812 169.871094 278.382812 Z M 160.0625 272.417969 " fill-opacity="1" fill-rule="nonzero"/><path fill="#0a163d" d="M 150.515625 308.871094 C 150.515625 308.871094 150.382812 308.871094 150.382812 308.871094 C 141.769531 308.34375 133.546875 278.382812 133.285156 277.058594 L 133.679688 276.925781 C 133.8125 277.191406 142.164062 307.945312 150.515625 308.476562 C 150.515625 308.476562 150.648438 308.476562 150.648438 308.476562 C 157.410156 308.476562 169.472656 278.648438 169.605469 278.25 L 169.871094 278.382812 C 169.871094 278.515625 166.691406 286.203125 162.847656 293.761719 C 157.542969 303.835938 153.433594 308.871094 150.515625 308.871094 Z M 150.515625 308.871094 " fill-opacity="1" fill-rule="nonzero"/><path fill="#0a163d" d="M 152.109375 283.15625 C 151.976562 283.15625 151.976562 283.15625 151.976562 283.023438 L 146.273438 260.089844 L 146.671875 259.957031 L 152.242188 282.492188 L 159.929688 272.152344 L 160.195312 272.417969 L 152.375 283.023438 C 152.242188 283.15625 152.242188 283.15625 152.109375 283.15625 Z M 152.109375 283.15625 " fill-opacity="1" fill-rule="nonzero"/><path fill="#ffe8e8" d="M 158.734375 273.476562 L 169.339844 279.972656 L 170.667969 276.925781 L 160.726562 270.828125 Z M 158.734375 273.476562 " fill-opacity="1" fill-rule="nonzero"/><path fill="#ff5757" d="M 195.457031 136.671875 C 195.457031 137 195.425781 137.328125 195.359375 137.652344 C 195.296875 137.976562 195.199219 138.292969 195.074219 138.597656 C 194.945312 138.902344 194.792969 139.195312 194.609375 139.46875 C 194.425781 139.742188 194.214844 140 193.980469 140.230469 C 193.746094 140.464844 193.492188 140.675781 193.21875 140.859375 C 192.941406 141.042969 192.652344 141.199219 192.347656 141.324219 C 192.042969 141.449219 191.726562 141.546875 191.402344 141.609375 C 191.078125 141.675781 190.75 141.707031 190.417969 141.707031 C 190.089844 141.707031 189.761719 141.675781 189.4375 141.609375 C 189.113281 141.546875 188.796875 141.449219 188.492188 141.324219 C 188.1875 141.199219 187.894531 141.042969 187.621094 140.859375 C 187.34375 140.675781 187.089844 140.464844 186.855469 140.230469 C 186.625 140 186.414062 139.742188 186.230469 139.46875 C 186.046875 139.195312 185.890625 138.902344 185.765625 138.597656 C 185.640625 138.292969 185.542969 137.976562 185.480469 137.652344 C 185.414062 137.328125 185.382812 137 185.382812 136.671875 C 185.382812 136.339844 185.414062 136.011719 185.480469 135.6875 C 185.542969 135.363281 185.640625 135.046875 185.765625 134.742188 C 185.890625 134.4375 186.046875 134.144531 186.230469 133.871094 C 186.414062 133.597656 186.625 133.34375 186.855469 133.109375 C 187.089844 132.875 187.34375 132.664062 187.621094 132.480469 C 187.894531 132.296875 188.1875 132.144531 188.492188 132.015625 C 188.796875 131.890625 189.113281 131.792969 189.4375 131.730469 C 189.761719 131.664062 190.089844 131.632812 190.417969 131.632812 C 190.75 131.632812 191.078125 131.664062 191.402344 131.730469 C 191.726562 131.792969 192.042969 131.890625 192.347656 132.015625 C 192.652344 132.144531 192.941406 132.296875 193.21875 132.480469 C 193.492188 132.664062 193.746094 132.875 193.980469 133.109375 C 194.214844 133.34375 194.425781 133.597656 194.609375 133.871094 C 194.792969 134.144531 194.945312 134.4375 195.074219 134.742188 C 195.199219 135.046875 195.296875 135.363281 195.359375 135.6875 C 195.425781 136.011719 195.457031 136.339844 195.457031 136.671875 Z M 195.457031 136.671875 " fill-opacity="1" fill-rule="nonzero"/><path fill="#fdf4bd" d="M 606.808594 325.707031 C 607.074219 326.238281 607.734375 326.238281 608.796875 325.707031 C 609.855469 325.179688 611.183594 324.382812 612.640625 323.191406 C 614.496094 321.730469 616.75 319.875 619.136719 317.621094 C 630.007812 307.679688 644.058594 292.300781 643.792969 290.710938 C 643.261719 288.324219 643.660156 286.335938 638.492188 286.867188 C 637.5625 287 636.769531 287.398438 636.105469 288.058594 C 632.921875 291.507812 621.789062 303.570312 614.230469 313.246094 C 612.640625 315.234375 611.183594 317.222656 609.988281 318.816406 C 607.734375 322.128906 606.410156 324.78125 606.808594 325.707031 Z M 606.808594 325.707031 " fill-opacity="1" fill-rule="nonzero"/><path fill="#fdf4bd" d="M 598.191406 328.625 C 598.191406 328.625 598.324219 328.757812 598.324219 328.757812 L 600.710938 329.816406 C 600.976562 330.082031 602.433594 330.214844 602.832031 330.082031 L 604.820312 329.6875 C 606.542969 329.15625 608.265625 328.359375 609.722656 327.167969 L 612.640625 323.984375 L 613.304688 323.324219 L 612.507812 322.394531 L 610.253906 319.476562 L 609.722656 318.816406 L 609.328125 318.816406 L 606.410156 318.550781 C 605.484375 318.417969 604.6875 318.550781 603.890625 318.949219 L 600.84375 321.203125 C 600.84375 321.203125 601.503906 321.730469 602.699219 321.464844 C 603.230469 321.335938 604.023438 321.464844 604.820312 321.597656 L 602.964844 322.660156 L 598.589844 325.578125 C 597.660156 326.238281 597.394531 327.695312 598.191406 328.625 Z M 598.191406 328.625 " fill-opacity="1" fill-rule="nonzero"/><path fill="#fdf4bd" d="M 625.5 251.738281 C 627.753906 251.605469 627.488281 248.953125 628.550781 250.808594 C 633.320312 259.292969 649.097656 288.058594 643 291.90625 C 635.839844 296.410156 623.511719 270.164062 620.859375 262.078125 C 618.605469 255.316406 620.195312 252.003906 625.5 251.738281 Z M 625.5 251.738281 " fill-opacity="1" fill-rule="nonzero"/><path fill="#fdf4bd" d="M 627.886719 279.046875 C 627.886719 279.046875 632.789062 287.796875 632.921875 288.855469 C 632.921875 289.914062 609.722656 318.683594 609.722656 318.683594 L 613.304688 323.324219 C 613.304688 323.324219 644.855469 298.398438 646.046875 290.710938 C 647.109375 283.023438 637.695312 267.246094 637.695312 267.246094 Z M 627.886719 279.046875 " fill-opacity="1" fill-rule="nonzero"/><path fill="#e1605b" d="M 618.871094 257.96875 C 618.871094 260.488281 619.535156 262.871094 620.59375 265.125 C 621.523438 267.113281 622.980469 270.164062 624.4375 273.476562 C 624.4375 273.476562 624.4375 273.609375 624.4375 273.609375 C 624.570312 274.007812 624.835938 274.40625 624.96875 274.671875 C 625.5 275.863281 626.03125 276.925781 626.558594 278.117188 C 626.824219 278.648438 627.089844 279.179688 627.355469 279.707031 L 627.753906 279.441406 L 634.910156 274.9375 L 640.878906 271.089844 C 636.371094 261.015625 632.660156 254.917969 630.273438 251.339844 C 628.679688 248.820312 625.367188 248.023438 622.980469 249.617188 C 620.992188 250.941406 619.003906 253.460938 618.871094 257.96875 Z M 618.871094 257.96875 " fill-opacity="1" fill-rule="nonzero"/><path fill="#0a163d" d="M 627.886719 279.3125 L 635.042969 274.804688 L 631.863281 261.28125 C 631.863281 261.414062 629.476562 272.550781 627.886719 279.3125 Z M 627.886719 279.3125 " fill-opacity="1" fill-rule="nonzero"/><path fill="#fdf4bd" d="M 618.207031 249.351562 L 617.945312 242.722656 C 617.945312 242.722656 627.886719 226.550781 619.800781 222.308594 C 611.714844 218.066406 604.15625 224.695312 604.15625 231.984375 C 604.15625 239.410156 604.6875 241.132812 608.132812 241.53125 L 607.472656 247.496094 " fill-opacity="1" fill-rule="nonzero"/><path fill="#fdf4bd" d="M 598.589844 323.324219 C 603.625 323.851562 607.207031 328.890625 606.542969 334.191406 C 605.878906 338.433594 604.554688 344.003906 601.503906 350.632812 C 594.082031 367.335938 589.707031 388.675781 582.546875 389.738281 C 575.390625 390.796875 572.871094 378.203125 577.113281 360.839844 C 580.957031 345.0625 581.355469 325.3125 586.527344 323.585938 C 589.042969 322.660156 594.214844 322.925781 598.589844 323.324219 Z M 598.589844 323.324219 " fill-opacity="1" fill-rule="nonzero"/><path fill="#fdf4bd" d="M 590.238281 391.328125 C 590.238281 391.328125 589.839844 416.648438 583.609375 452.972656 L 572.738281 452.175781 C 572.738281 452.175781 572.074219 404.1875 574.460938 389.339844 C 576.847656 374.492188 590.238281 391.328125 590.238281 391.328125 Z M 590.238281 391.328125 " fill-opacity="1" fill-rule="nonzero"/><path fill="#fdf4bd" d="M 616.882812 322.792969 C 621.921875 322.128906 626.691406 325.972656 627.222656 331.410156 C 627.621094 335.652344 627.621094 341.351562 626.296875 348.511719 C 623.113281 366.539062 624.175781 388.28125 617.414062 391.0625 C 610.785156 393.847656 605.21875 382.183594 605.085938 364.285156 C 604.953125 348.113281 600.578125 328.757812 605.085938 325.839844 C 607.472656 324.515625 612.507812 323.457031 616.882812 322.792969 Z M 616.882812 322.792969 " fill-opacity="1" fill-rule="nonzero"/><path fill="#fdf4bd" d="M 625.898438 393.050781 C 625.898438 393.050781 631.996094 426.195312 631.597656 451.382812 L 621.125 452.175781 C 621.125 452.175781 610.253906 402.199219 609.59375 393.183594 C 609.0625 384.171875 625.898438 393.050781 625.898438 393.050781 Z M 625.898438 393.050781 " fill-opacity="1" fill-rule="nonzero"/><path fill="#fdf4bd" d="M 612.242188 386.554688 C 623.910156 375.421875 632.128906 440.113281 631.066406 458.007812 C 630.007812 475.90625 624.175781 462.117188 617.679688 434.546875 C 611.183594 407.238281 607.605469 390.929688 612.242188 386.554688 Z M 612.242188 386.554688 " fill-opacity="1" fill-rule="nonzero"/><path fill="#fdf4bd" d="M 583.609375 452.972656 L 582.8125 461.722656 L 572.605469 461.722656 L 572.738281 452.175781 Z M 583.609375 452.972656 " fill-opacity="1" fill-rule="nonzero"/><path fill="#fdf4bd" d="M 631.597656 451.382812 L 632.394531 459.996094 L 622.449219 461.589844 L 621.125 452.175781 Z M 631.597656 451.382812 " fill-opacity="1" fill-rule="nonzero"/><path fill="#0a163d" d="M 582.945312 472.722656 L 582.945312 459.863281 C 582.945312 459.863281 578.96875 461.457031 572.605469 459.46875 C 572.605469 459.46875 567.964844 464.371094 563.460938 464.769531 C 558.953125 465.167969 556.699219 467.15625 556.566406 469.808594 C 556.433594 474.449219 582.945312 472.722656 582.945312 472.722656 Z M 582.945312 472.722656 " fill-opacity="1" fill-rule="nonzero"/><path fill="#0a163d" d="M 632.394531 458.804688 C 632.394531 458.804688 624.835938 460.527344 622.1875 459.863281 C 622.1875 459.863281 621.523438 463.976562 621.257812 465.433594 C 620.859375 466.890625 620.59375 467.953125 618.078125 469.011719 C 615.292969 470.207031 615.292969 474.050781 618.078125 473.917969 C 620.859375 473.785156 634.382812 471.398438 634.382812 471.398438 Z M 632.394531 458.804688 " fill-opacity="1" fill-rule="nonzero"/><path fill="#0a163d" d="M 583.875 321.203125 C 583.875 321.203125 571.679688 372.503906 571.414062 386.953125 C 571.148438 401.402344 571.414062 453.238281 571.414062 453.238281 L 585.332031 453.632812 L 593.152344 386.292969 C 593.152344 386.292969 611.183594 332.734375 611.84375 325.972656 C 612.773438 319.214844 583.875 321.203125 583.875 321.203125 Z M 583.875 321.203125 " fill-opacity="1" fill-rule="nonzero"/><path fill="#0a163d" d="M 631.730469 327.300781 C 631.730469 327.300781 632.128906 331.542969 631.464844 341.21875 C 630.800781 350.894531 628.8125 384.964844 629.078125 388.015625 C 629.34375 390.929688 633.320312 454.03125 633.320312 454.03125 L 619.136719 456.019531 C 619.136719 456.019531 607.734375 396.765625 606.277344 388.808594 C 604.820312 380.855469 604.289062 324.78125 604.289062 324.78125 Z M 631.730469 327.300781 " fill-opacity="1" fill-rule="nonzero"/><path fill="#e1605b" d="M 582.945312 321.335938 C 582.945312 321.335938 598.058594 330.082031 614.761719 330.480469 C 620.328125 330.613281 626.164062 329.816406 631.730469 327.300781 C 631.730469 327.300781 631.332031 300.519531 631.996094 286.203125 C 632.660156 271.886719 634.25 252.53125 628.417969 248.6875 C 625.898438 247.097656 621.257812 246.699219 618.207031 246.566406 C 617.546875 246.566406 616.351562 247.230469 614.097656 247.097656 C 610.386719 247.097656 607.867188 246.300781 607.867188 246.300781 C 602.566406 246.300781 591.5625 247.496094 589.308594 257.4375 C 589.175781 258.234375 589.042969 259.160156 588.910156 260.089844 C 588.910156 260.222656 588.910156 260.488281 588.910156 260.75 L 588.910156 260.882812 C 588.910156 261.414062 588.910156 261.8125 588.910156 262.34375 C 588.910156 262.871094 588.910156 263.402344 588.910156 263.933594 C 588.910156 264.730469 588.910156 265.65625 588.777344 266.453125 C 588.777344 266.980469 588.777344 267.644531 588.777344 268.175781 C 588.777344 270.960938 588.648438 273.875 588.515625 276.925781 C 587.851562 292.699219 586.789062 311.125 582.945312 321.335938 Z M 582.945312 321.335938 " fill-opacity="1" fill-rule="nonzero"/><path fill="#0a163d" d="M 588.382812 277.058594 L 604.289062 262.871094 L 588.648438 268.175781 C 588.515625 270.960938 588.515625 274.007812 588.382812 277.058594 Z M 588.382812 277.058594 " fill-opacity="1" fill-rule="nonzero"/><path fill="#fdf4bd" d="M 528.0625 245.375 C 527.535156 245.640625 527.667969 246.433594 528.328125 247.363281 C 528.859375 248.289062 529.921875 249.484375 531.246094 250.941406 C 532.835938 252.664062 534.957031 254.652344 537.34375 256.773438 C 548.347656 266.585938 565.050781 279.046875 566.640625 278.515625 C 568.894531 277.71875 571.015625 277.984375 569.953125 272.949219 C 569.824219 272.019531 569.292969 271.222656 568.496094 270.695312 C 564.785156 267.910156 551.660156 257.96875 541.320312 251.472656 C 539.199219 250.144531 537.078125 248.820312 535.355469 247.894531 C 531.644531 245.902344 528.992188 244.84375 528.0625 245.375 Z M 528.0625 245.375 " fill-opacity="1" fill-rule="nonzero"/><path fill="#fdf4bd" d="M 524.882812 241.398438 C 522.761719 243.253906 524.085938 245.109375 524.085938 245.109375 C 524.617188 246.566406 526.605469 248.023438 527.667969 249.085938 C 527.800781 249.21875 527.929688 249.351562 528.195312 249.484375 L 530.980469 251.605469 L 531.644531 252.136719 L 532.4375 251.339844 L 534.824219 249.085938 L 535.355469 248.554688 L 535.355469 245.640625 C 535.355469 244.84375 535.089844 244.179688 534.824219 243.519531 L 532.570312 241.132812 C 532.570312 241.132812 532.171875 241.792969 532.570312 242.855469 C 532.703125 243.386719 532.703125 244.046875 532.570312 244.710938 L 531.511719 243.253906 L 530.183594 241.792969 C 529.257812 240.734375 526.871094 239.542969 524.882812 241.398438 Z M 524.882812 241.398438 " fill-opacity="1" fill-rule="nonzero"/><path fill="#fdf4bd" d="M 603.492188 256.375 C 603.890625 258.496094 606.542969 258.101562 604.6875 259.425781 C 596.734375 265.125 569.691406 283.554688 565.316406 277.984375 C 560.144531 271.355469 585.066406 256.375 592.757812 252.929688 C 599.25 250.015625 602.699219 251.207031 603.492188 256.375 Z M 603.492188 256.375 " fill-opacity="1" fill-rule="nonzero"/><path fill="#fdf4bd" d="M 582.546875 257.96875 L 568.628906 266.585938 L 535.222656 247.894531 L 531.511719 252.136719 C 531.511719 252.136719 548.613281 267.910156 556.035156 273.082031 C 563.460938 278.25 564.652344 279.839844 569.027344 280.105469 C 573.402344 280.371094 590.898438 270.296875 590.898438 270.296875 Z M 582.546875 257.96875 " fill-opacity="1" fill-rule="nonzero"/><path fill="#e1605b" d="M 581.886719 257.570312 L 589.839844 271.222656 C 595.804688 268.308594 601.503906 264.992188 604.289062 262.871094 C 606.542969 261.015625 607.339844 256.113281 605.484375 253.859375 C 603.890625 251.871094 602.035156 246.167969 597.792969 247.894531 C 591.695312 250.410156 584.007812 256.246094 581.886719 257.570312 Z M 581.886719 257.570312 " fill-opacity="1" fill-rule="nonzero"/><path fill="#ffe8e8" d="M 618.078125 245.640625 L 618.738281 246.699219 C 618.738281 246.699219 616.085938 247.894531 612.773438 247.628906 C 609.59375 247.230469 608.132812 246.964844 606.675781 246.300781 L 607.605469 245.375 C 607.605469 245.242188 613.703125 246.964844 618.078125 245.640625 Z M 618.078125 245.640625 " fill-opacity="1" fill-rule="nonzero"/><path fill="#0a163d" d="M 600.84375 224.5625 C 600.84375 224.03125 601.109375 223.367188 601.503906 222.96875 C 601.242188 222.441406 601.109375 221.777344 601.109375 221.113281 C 601.109375 220.714844 601.109375 220.453125 601.242188 220.1875 C 601.109375 219.65625 600.976562 219.125 600.976562 218.597656 C 600.976562 215.945312 603.097656 213.824219 605.746094 213.824219 C 606.808594 213.824219 607.867188 214.222656 608.664062 214.882812 C 608.796875 214.882812 608.796875 214.882812 608.929688 214.882812 C 609.988281 214.882812 610.785156 215.546875 611.050781 216.476562 C 611.316406 216.476562 611.582031 216.34375 611.84375 216.34375 C 613.171875 216.34375 614.363281 216.871094 615.160156 217.800781 C 615.558594 217.003906 616.21875 216.476562 617.148438 216.476562 C 618.078125 216.476562 618.871094 217.003906 619.136719 217.800781 C 619.402344 217.800781 619.535156 217.667969 619.800781 217.667969 C 622.449219 217.667969 624.570312 219.789062 624.570312 222.441406 C 624.570312 222.574219 624.570312 222.574219 624.570312 222.707031 C 625.101562 222.835938 625.5 223.367188 625.5 224.03125 C 625.5 224.429688 625.367188 224.695312 625.101562 224.957031 C 625.367188 225.621094 625.632812 226.285156 625.632812 227.078125 C 625.632812 228.273438 625.101562 229.464844 624.308594 230.261719 C 624.835938 231.058594 625.101562 231.984375 625.101562 232.914062 C 625.101562 235.035156 623.644531 236.890625 621.65625 237.421875 C 621.65625 238.214844 621.125 239.011719 620.460938 239.277344 C 620.59375 239.542969 620.726562 239.804688 620.726562 240.070312 C 620.726562 240.867188 620.066406 241.53125 619.269531 241.53125 C 619.136719 241.53125 618.871094 241.53125 618.738281 241.398438 C 618.207031 242.058594 617.8125 242.324219 617.8125 242.324219 C 616.21875 242.324219 614.496094 241.792969 613.304688 240.867188 C 613.171875 241 612.90625 241 612.640625 241 C 611.847656 241 611.183594 240.335938 611.183594 239.542969 C 611.183594 239.144531 611.316406 238.878906 611.582031 238.613281 C 611.582031 238.480469 611.449219 238.480469 611.449219 238.347656 C 610.253906 234.902344 610.121094 234.769531 610.121094 231.851562 C 610.253906 228.9375 606.542969 229.730469 603.492188 228.40625 C 602.699219 228.140625 602.300781 227.210938 602.035156 226.019531 C 601.371094 226.285156 600.84375 225.488281 600.84375 224.5625 Z M 600.84375 224.5625 " fill-opacity="1" fill-rule="nonzero"/><path stroke-linecap="butt" transform="matrix(0.75, 0, 0, 0.75, 253.799993, 442.499971)" fill="none" stroke-linejoin="miter" d="M 0.00105136 2.000039 L 363.198992 2.000039 " stroke="#000000" stroke-width="4" stroke-opacity="1" stroke-miterlimit="4"/></svg>